<svg width="116" height="24" viewBox="0 0 116 24" fill="none" xmlns="http://www.w3.org/2000/svg">
<path d="M9.58779 1.11377H0.324022C0.14507 1.11377 0 1.26727 0 1.45663V22.5434C0 22.7327 0.14507 22.8862 0.324022 22.8862H9.58779C9.76674 22.8862 9.91181 22.7327 9.91181 22.5434V1.45663C9.91181 1.26727 9.76674 1.11377 9.58779 1.11377Z" fill="#BB0000"/>
<path d="M20.3779 1.11377H11.2395C11.0606 1.11377 10.9155 1.26727 10.9155 1.45663V11.1261C10.9155 11.3155 11.0606 11.469 11.2395 11.469H20.3779C20.5568 11.469 20.7019 11.3155 20.7019 11.1261V1.45663C20.7019 1.26727 20.5568 1.11377 20.3779 1.11377Z" fill="#BB0000"/>
<path d="M20.7019 22.0586C20.7019 22.364 20.3529 22.517 20.1488 22.301L15.8087 17.7087L11.4687 13.1164C11.2646 12.9004 11.4092 12.5311 11.6978 12.5311H20.3779C20.5568 12.5311 20.7019 12.6846 20.7019 12.8739V22.0586Z" fill="#BB0000"/>
<path d="M29.0824 19.2V4.14722H36.8796C37.9304 4.14722 38.8014 4.3447 39.4925 4.73967C40.1976 5.13465 40.7231 5.69052 41.0685 6.40733C41.4143 7.1095 41.587 7.92139 41.587 8.84299C41.587 9.82312 41.3796 10.6935 40.9648 11.4542C40.5501 12.2002 39.9487 12.7708 39.1607 13.1657L42.0639 19.2H38.6423L36.133 13.7143H32.1723V19.2H29.0824ZM32.1723 11.125H36.4648C37.0869 11.125 37.571 10.9276 37.9164 10.5326C38.2622 10.123 38.4349 9.57441 38.4349 8.88688C38.4349 8.44802 38.3591 8.07499 38.2068 7.76779C38.0548 7.44595 37.8335 7.20458 37.5432 7.04367C37.2528 6.88277 36.8935 6.8023 36.4648 6.8023H32.1723V11.125ZM47.8652 19.4633C46.6625 19.4633 45.6535 19.2512 44.8376 18.827C44.022 18.3881 43.4067 17.7225 42.9919 16.8302C42.5772 15.9378 42.3698 14.8041 42.3698 13.429C42.3698 12.0393 42.5772 10.9056 42.9919 10.0279C43.4067 9.13555 44.0152 8.47726 44.8168 8.05305C45.6327 7.61419 46.6281 7.39476 47.803 7.39476C48.9092 7.39476 49.8424 7.60689 50.6026 8.0311C51.363 8.44071 51.9369 9.08436 52.3238 9.96207C52.711 10.8251 52.9044 11.9442 52.9044 13.3193V14.1093H45.2938C45.3216 14.7822 45.4182 15.3527 45.5841 15.8208C45.7639 16.2889 46.0335 16.64 46.3929 16.8741C46.7661 17.0935 47.257 17.2032 47.8652 17.2032C48.197 17.2032 48.4945 17.1593 48.7569 17.0716C49.0336 16.9838 49.2686 16.8521 49.462 16.6766C49.6558 16.501 49.8077 16.2816 49.9182 16.0183C50.029 15.755 50.0841 15.4551 50.0841 15.1186H52.9044C52.9044 15.8501 52.78 16.4864 52.5311 17.0277C52.2823 17.5689 51.9369 18.0224 51.4943 18.3881C51.052 18.7392 50.5196 19.0098 49.8975 19.2C49.2893 19.3756 48.6118 19.4633 47.8652 19.4633ZM45.3353 12.1783H49.939C49.939 11.7394 49.8839 11.3591 49.7731 11.0373C49.6765 10.7154 49.5382 10.4521 49.3583 10.2473C49.1788 10.0425 48.9575 9.89625 48.6947 9.80848C48.4459 9.70606 48.1627 9.65487 47.8445 9.65487C47.3193 9.65487 46.877 9.74995 46.5173 9.94013C46.1719 10.1157 45.9023 10.3936 45.7085 10.774C45.529 11.1397 45.4046 11.6078 45.3353 12.1783ZM58.6069 19.4633C57.8467 19.4633 57.1624 19.3756 56.5539 19.2C55.9457 19.0245 55.4273 18.7831 54.9986 18.4759C54.5702 18.1541 54.2384 17.7737 54.0032 17.3349C53.7822 16.896 53.6714 16.3986 53.6714 15.8428C53.6714 15.7842 53.6714 15.7257 53.6714 15.6672C53.6714 15.6087 53.6785 15.5648 53.6921 15.5356H56.4709C56.4709 15.5648 56.4709 15.5941 56.4709 15.6233C56.4709 15.6526 56.4709 15.6819 56.4709 15.7111C56.4849 16.0768 56.5954 16.3767 56.8027 16.6108C57.0101 16.8302 57.2797 16.9911 57.6115 17.0935C57.9572 17.1959 58.3166 17.2471 58.6898 17.2471C59.0216 17.2471 59.3398 17.2179 59.6438 17.1593C59.962 17.0862 60.2244 16.9618 60.4318 16.7863C60.6531 16.6108 60.7636 16.384 60.7636 16.1061C60.7636 15.755 60.6255 15.4844 60.3488 15.2942C60.0864 15.104 59.7338 14.9504 59.2912 14.8334C58.8629 14.7164 58.3927 14.5847 57.8811 14.4384C57.4112 14.3214 56.9411 14.1897 56.4709 14.0434C56.0011 13.8825 55.5724 13.6777 55.1852 13.429C54.8119 13.1804 54.508 12.8585 54.2728 12.4636C54.0378 12.0539 53.9202 11.542 53.9202 10.9276C53.9202 10.3278 54.0447 9.80848 54.2935 9.36962C54.5424 8.91612 54.8813 8.54309 55.3096 8.25053C55.7523 7.95797 56.2636 7.74585 56.8442 7.61419C57.4388 7.46789 58.0748 7.39476 58.7521 7.39476C59.3881 7.39476 59.9827 7.46789 60.5355 7.61419C61.0886 7.74585 61.5723 7.95063 61.9871 8.22859C62.4018 8.4919 62.7268 8.82835 62.9618 9.23796C63.197 9.63293 63.3143 10.0791 63.3143 10.5765C63.3143 10.6789 63.3143 10.774 63.3143 10.8617C63.3143 10.9495 63.3075 11.008 63.2935 11.0373H60.5355V10.8617C60.5355 10.5984 60.4597 10.379 60.3074 10.2034C60.1554 10.0133 59.9341 9.867 59.6438 9.76459C59.3674 9.66218 59.0288 9.61099 58.6276 9.61099C58.3512 9.61099 58.0956 9.63293 57.8603 9.67682C57.6394 9.7207 57.4456 9.78653 57.2797 9.8743C57.1138 9.96207 56.9826 10.0718 56.8857 10.2034C56.8027 10.3205 56.7613 10.4668 56.7613 10.6423C56.7613 10.891 56.8581 11.0958 57.0516 11.2567C57.259 11.403 57.5285 11.5273 57.8603 11.6297C58.1921 11.7321 58.5586 11.8419 58.9594 11.9589C59.4571 12.1052 59.9756 12.2514 60.5147 12.3977C61.0678 12.5294 61.5795 12.7122 62.0493 12.9463C62.5195 13.1804 62.8995 13.5168 63.1899 13.9557C63.4802 14.3799 63.6253 14.9577 63.6253 15.6892C63.6253 16.3913 63.4941 16.9838 63.2313 17.4665C62.9825 17.9493 62.6299 18.3369 62.1737 18.6295C61.7175 18.9221 61.1855 19.1342 60.5769 19.2658C59.9688 19.3975 59.312 19.4633 58.6069 19.4633ZM68.1393 19.4633C67.4478 19.4633 66.8879 19.3317 66.4596 19.0684C66.0309 18.805 65.7198 18.454 65.5264 18.0151C65.3326 17.5616 65.2361 17.0643 65.2361 16.523V10.006H63.8881V7.65807H65.3397L65.8789 4.36665H68.1186V7.65807H70.1094V10.006H68.1186V16.0183C68.1186 16.3694 68.1944 16.64 68.3467 16.8302C68.4986 17.0057 68.7475 17.0935 69.0932 17.0935H70.1094V19.1122C69.9435 19.1708 69.7497 19.222 69.5287 19.2658C69.3074 19.3244 69.0725 19.3683 68.8236 19.3975C68.5748 19.4414 68.3467 19.4633 68.1393 19.4633ZM71.142 19.2V7.65807H73.5268L73.7549 9.45739H73.9001C74.0381 9.07706 74.218 8.73327 74.4393 8.42607C74.6603 8.10423 74.937 7.84826 75.2688 7.65807C75.6006 7.46789 75.9874 7.37282 76.4301 7.37282C76.665 7.37282 76.8792 7.40206 77.0729 7.46059C77.2664 7.50447 77.4115 7.54836 77.5084 7.59225V10.357H76.6167C76.188 10.357 75.8079 10.4229 75.4761 10.5545C75.1579 10.6715 74.8884 10.8617 74.6674 11.125C74.4461 11.3884 74.2802 11.7102 74.1697 12.0905C74.0728 12.4709 74.0245 12.9171 74.0245 13.429V19.2H71.142ZM83.0061 19.4633C81.8173 19.4633 80.8079 19.2512 79.9784 18.827C79.1489 18.3881 78.52 17.7225 78.0913 16.8302C77.663 15.9232 77.4485 14.7895 77.4485 13.429C77.4485 12.0393 77.663 10.9056 78.0913 10.0279C78.52 9.13555 79.1489 8.47726 79.9784 8.05305C80.8079 7.61419 81.8173 7.39476 83.0061 7.39476C84.2228 7.39476 85.2389 7.61419 86.0545 8.05305C86.884 8.47726 87.5132 9.13555 87.9416 10.0279C88.3703 10.9056 88.5845 12.0393 88.5845 13.429C88.5845 14.7895 88.3703 15.9232 87.9416 16.8302C87.5132 17.7225 86.884 18.3881 86.0545 18.827C85.2389 19.2512 84.2228 19.4633 83.0061 19.4633ZM83.0061 17.0935C83.6422 17.0935 84.1467 16.9692 84.5199 16.7205C84.9071 16.4718 85.1907 16.0914 85.3702 15.5794C85.55 15.0675 85.6397 14.4384 85.6397 13.6924V13.1657C85.6397 12.4197 85.55 11.7906 85.3702 11.2786C85.1907 10.7667 84.9071 10.3863 84.5199 10.1376C84.1467 9.8743 83.6422 9.74265 83.0061 9.74265C82.384 9.74265 81.8795 9.8743 81.4923 10.1376C81.119 10.3863 80.8426 10.7667 80.6628 11.2786C80.4833 11.7906 80.3932 12.4197 80.3932 13.1657V13.6924C80.3932 14.4384 80.4833 15.0675 80.6628 15.5794C80.8426 16.0914 81.119 16.4718 81.4923 16.7205C81.8795 16.9692 82.384 17.0935 83.0061 17.0935ZM93.3661 19.2V4.14722H103.859V6.82425H96.4559V10.5545H103.071V13.2096H96.4559V19.2H93.3661ZM104.047 19.2L108.008 13.2096L104.337 7.65807H107.801L109.874 11.125H109.978L112.073 7.65807H115.328L111.637 13.1877L115.536 19.2H112.135L109.771 15.2722H109.667L107.303 19.2H104.047Z" fill="#BB0000"/>
</svg>
